<mxfile host="Electron" agent="Mozilla/5.0 (X11; Linux x86_64) AppleWebKit/537.36 (KHTML, like Gecko) draw.io/26.0.4 Chrome/128.0.6613.186 Electron/32.2.5 Safari/537.36" version="26.0.4">
  <diagram name="Page-1" id="qE1uqoDQab5jpQXvPKM5">
    <mxGraphModel dx="1114" dy="1198" grid="1" gridSize="10" guides="1" tooltips="1" connect="1" arrows="1" fold="1" page="1" pageScale="1" pageWidth="850" pageHeight="1100" math="0" shadow="0">
      <root>
        <mxCell id="0" />
        <mxCell id="1" parent="0" />
        <mxCell id="PV3cR6gaA5ifdB_A8awv-1" value="AWS Cloud" style="points=[[0,0],[0.25,0],[0.5,0],[0.75,0],[1,0],[1,0.25],[1,0.5],[1,0.75],[1,1],[0.75,1],[0.5,1],[0.25,1],[0,1],[0,0.75],[0,0.5],[0,0.25]];outlineConnect=0;gradientColor=none;html=1;whiteSpace=wrap;fontSize=12;fontStyle=0;container=1;pointerEvents=0;collapsible=0;recursiveResize=0;shape=mxgraph.aws4.group;grIcon=mxgraph.aws4.group_aws_cloud;strokeColor=#232F3E;fillColor=none;verticalAlign=top;align=left;spacingLeft=30;fontColor=#232F3E;dashed=0;" vertex="1" parent="1">
          <mxGeometry x="90" y="280" width="680" height="470" as="geometry" />
        </mxCell>
        <mxCell id="PV3cR6gaA5ifdB_A8awv-2" value="Region" style="points=[[0,0],[0.25,0],[0.5,0],[0.75,0],[1,0],[1,0.25],[1,0.5],[1,0.75],[1,1],[0.75,1],[0.5,1],[0.25,1],[0,1],[0,0.75],[0,0.5],[0,0.25]];outlineConnect=0;gradientColor=none;html=1;whiteSpace=wrap;fontSize=12;fontStyle=0;container=1;pointerEvents=0;collapsible=0;recursiveResize=0;shape=mxgraph.aws4.group;grIcon=mxgraph.aws4.group_region;strokeColor=#00A4A6;fillColor=none;verticalAlign=top;align=left;spacingLeft=30;fontColor=#147EBA;dashed=1;" vertex="1" parent="PV3cR6gaA5ifdB_A8awv-1">
          <mxGeometry x="20" y="30" width="640" height="420" as="geometry" />
        </mxCell>
        <mxCell id="PV3cR6gaA5ifdB_A8awv-8" value="Auto Scaling group" style="points=[[0,0],[0.25,0],[0.5,0],[0.75,0],[1,0],[1,0.25],[1,0.5],[1,0.75],[1,1],[0.75,1],[0.5,1],[0.25,1],[0,1],[0,0.75],[0,0.5],[0,0.25]];outlineConnect=0;gradientColor=none;html=1;whiteSpace=wrap;fontSize=12;fontStyle=0;container=1;pointerEvents=0;collapsible=0;recursiveResize=0;shape=mxgraph.aws4.groupCenter;grIcon=mxgraph.aws4.group_auto_scaling_group;grStroke=1;strokeColor=#D86613;fillColor=none;verticalAlign=top;align=center;fontColor=#D86613;dashed=1;spacingTop=25;" vertex="1" parent="PV3cR6gaA5ifdB_A8awv-2">
          <mxGeometry x="20" y="270" width="130" height="130" as="geometry" />
        </mxCell>
        <mxCell id="PV3cR6gaA5ifdB_A8awv-5" value="Processing Servers" style="sketch=0;outlineConnect=0;fontColor=#232F3E;gradientColor=none;fillColor=#ED7100;strokeColor=none;dashed=0;verticalLabelPosition=bottom;verticalAlign=top;align=center;html=1;fontSize=12;fontStyle=0;aspect=fixed;pointerEvents=1;shape=mxgraph.aws4.instances;" vertex="1" parent="PV3cR6gaA5ifdB_A8awv-8">
          <mxGeometry x="41" y="51" width="48" height="48" as="geometry" />
        </mxCell>
        <mxCell id="PV3cR6gaA5ifdB_A8awv-14" value="Instance launched and terminated as&lt;div&gt;metric increases and decreases&lt;/div&gt;" style="edgeStyle=orthogonalEdgeStyle;rounded=0;orthogonalLoop=1;jettySize=auto;html=1;entryX=1;entryY=0.5;entryDx=0;entryDy=0;" edge="1" parent="PV3cR6gaA5ifdB_A8awv-2" source="PV3cR6gaA5ifdB_A8awv-6" target="PV3cR6gaA5ifdB_A8awv-8">
          <mxGeometry relative="1" as="geometry" />
        </mxCell>
        <mxCell id="PV3cR6gaA5ifdB_A8awv-6" value="ASG - &lt;b&gt;Target Tracking&lt;/b&gt;&lt;div&gt;Scaling Policy&lt;/div&gt;" style="sketch=0;outlineConnect=0;fontColor=#232F3E;gradientColor=none;fillColor=#ED7100;strokeColor=none;dashed=0;verticalLabelPosition=bottom;verticalAlign=top;align=center;html=1;fontSize=12;fontStyle=0;aspect=fixed;pointerEvents=1;shape=mxgraph.aws4.auto_scaling2;" vertex="1" parent="PV3cR6gaA5ifdB_A8awv-2">
          <mxGeometry x="415" y="311" width="48" height="48" as="geometry" />
        </mxCell>
        <mxCell id="PV3cR6gaA5ifdB_A8awv-9" style="edgeStyle=orthogonalEdgeStyle;rounded=0;orthogonalLoop=1;jettySize=auto;html=1;" edge="1" parent="PV3cR6gaA5ifdB_A8awv-2" source="PV3cR6gaA5ifdB_A8awv-3" target="PV3cR6gaA5ifdB_A8awv-8">
          <mxGeometry relative="1" as="geometry" />
        </mxCell>
        <mxCell id="PV3cR6gaA5ifdB_A8awv-3" value="SQS Queue&lt;div&gt;Backlog&lt;/div&gt;" style="sketch=0;outlineConnect=0;fontColor=#232F3E;gradientColor=none;fillColor=#E7157B;strokeColor=none;dashed=0;verticalLabelPosition=top;verticalAlign=bottom;align=center;html=1;fontSize=12;fontStyle=0;aspect=fixed;pointerEvents=1;shape=mxgraph.aws4.message;labelPosition=center;" vertex="1" parent="PV3cR6gaA5ifdB_A8awv-2">
          <mxGeometry x="51.5" y="70" width="67" height="78" as="geometry" />
        </mxCell>
        <mxCell id="PV3cR6gaA5ifdB_A8awv-10" value="&amp;nbsp;Reads queue backlog&amp;nbsp;" style="edgeStyle=orthogonalEdgeStyle;rounded=0;orthogonalLoop=1;jettySize=auto;html=1;" edge="1" parent="PV3cR6gaA5ifdB_A8awv-2" source="PV3cR6gaA5ifdB_A8awv-7" target="PV3cR6gaA5ifdB_A8awv-3">
          <mxGeometry relative="1" as="geometry" />
        </mxCell>
        <mxCell id="PV3cR6gaA5ifdB_A8awv-11" value="&amp;nbsp;Reads capacity&amp;nbsp;" style="edgeStyle=orthogonalEdgeStyle;rounded=0;orthogonalLoop=1;jettySize=auto;html=1;entryX=0.75;entryY=0;entryDx=0;entryDy=0;" edge="1" parent="PV3cR6gaA5ifdB_A8awv-2" source="PV3cR6gaA5ifdB_A8awv-7" target="PV3cR6gaA5ifdB_A8awv-8">
          <mxGeometry relative="1" as="geometry">
            <Array as="points">
              <mxPoint x="409" y="230" />
              <mxPoint x="118" y="230" />
            </Array>
          </mxGeometry>
        </mxCell>
        <mxCell id="PV3cR6gaA5ifdB_A8awv-12" style="edgeStyle=orthogonalEdgeStyle;rounded=0;orthogonalLoop=1;jettySize=auto;html=1;" edge="1" parent="PV3cR6gaA5ifdB_A8awv-2" source="PV3cR6gaA5ifdB_A8awv-7" target="PV3cR6gaA5ifdB_A8awv-4">
          <mxGeometry relative="1" as="geometry" />
        </mxCell>
        <mxCell id="PV3cR6gaA5ifdB_A8awv-13" style="edgeStyle=orthogonalEdgeStyle;rounded=0;orthogonalLoop=1;jettySize=auto;html=1;" edge="1" parent="PV3cR6gaA5ifdB_A8awv-2" source="PV3cR6gaA5ifdB_A8awv-7" target="PV3cR6gaA5ifdB_A8awv-6">
          <mxGeometry relative="1" as="geometry">
            <Array as="points">
              <mxPoint x="440" y="280" />
              <mxPoint x="440" y="280" />
            </Array>
          </mxGeometry>
        </mxCell>
        <mxCell id="PV3cR6gaA5ifdB_A8awv-7" value="Backlog per instance&lt;div&gt;(custom metric)&lt;/div&gt;" style="sketch=0;outlineConnect=0;fontColor=#232F3E;gradientColor=none;fillColor=#232F3D;strokeColor=none;dashed=0;verticalLabelPosition=top;verticalAlign=bottom;align=center;html=1;fontSize=12;fontStyle=0;aspect=fixed;pointerEvents=1;shape=mxgraph.aws4.metrics;labelPosition=center;" vertex="1" parent="PV3cR6gaA5ifdB_A8awv-2">
          <mxGeometry x="385" y="73.5" width="78" height="71" as="geometry" />
        </mxCell>
        <mxCell id="PV3cR6gaA5ifdB_A8awv-4" value="Amazon&lt;div&gt;CloudWatch&lt;/div&gt;" style="sketch=0;points=[[0,0,0],[0.25,0,0],[0.5,0,0],[0.75,0,0],[1,0,0],[0,1,0],[0.25,1,0],[0.5,1,0],[0.75,1,0],[1,1,0],[0,0.25,0],[0,0.5,0],[0,0.75,0],[1,0.25,0],[1,0.5,0],[1,0.75,0]];points=[[0,0,0],[0.25,0,0],[0.5,0,0],[0.75,0,0],[1,0,0],[0,1,0],[0.25,1,0],[0.5,1,0],[0.75,1,0],[1,1,0],[0,0.25,0],[0,0.5,0],[0,0.75,0],[1,0.25,0],[1,0.5,0],[1,0.75,0]];outlineConnect=0;fontColor=#232F3E;fillColor=#E7157B;strokeColor=#ffffff;dashed=0;verticalLabelPosition=bottom;verticalAlign=top;align=center;html=1;fontSize=12;fontStyle=0;aspect=fixed;shape=mxgraph.aws4.resourceIcon;resIcon=mxgraph.aws4.cloudwatch_2;" vertex="1" parent="PV3cR6gaA5ifdB_A8awv-2">
          <mxGeometry x="540" y="70" width="78" height="78" as="geometry" />
        </mxCell>
      </root>
    </mxGraphModel>
  </diagram>
</mxfile>
